/* XPM */
static char * assymetric_xpm[] = {
"64 39 86 1",
" 	c None",
".	c #000000",
"+	c #930000",
"@	c #E10000",
"#	c #C50000",
"$	c #1C0000",
"%	c #1B0000",
"&	c #F90000",
"*	c #FF0000",
"=	c #9E0000",
"-	c #160000",
";	c #F60000",
">	c #970000",
",	c #840000",
"'	c #D90000",
")	c #B60000",
"!	c #0D0000",
"~	c #580000",
"{	c #BB0000",
"]	c #980000",
"^	c #E70000",
"/	c #AE0000",
"(	c #AA0000",
"_	c #E40000",
":	c #4D0000",
"<	c #7B0000",
"[	c #5C0000",
"}	c #C60000",
"|	c #FC0000",
"1	c #800000",
"2	c #F50000",
"3	c #C40000",
"4	c #960000",
"5	c #F70000",
"6	c #EB0000",
"7	c #680000",
"8	c #C70000",
"9	c #D60000",
"0	c #410000",
"a	c #A50000",
"b	c #090000",
"c	c #5F0000",
"d	c #D20000",
"e	c #CA0000",
"f	c #440000",
"g	c #670000",
"h	c #D40000",
"i	c #360000",
"j	c #710000",
"k	c #C10000",
"l	c #2A0000",
"m	c #7C0000",
"n	c #D80000",
"o	c #BC0000",
"p	c #1D0000",
"q	c #DA0000",
"r	c #B70000",
"s	c #450000",
"t	c #D10000",
"u	c #E00000",
"v	c #BD0000",
"w	c #E90000",
"x	c #B20000",
"y	c #F10000",
"z	c #A30000",
"A	c #DC0000",
"B	c #C90000",
"C	c #E30000",
"D	c #C00000",
"E	c #ED0000",
"F	c #F40000",
"G	c #A70000",
"H	c #6B0000",
"I	c #550000",
"J	c #770000",
"K	c #DE0000",
"L	c #4A0000",
"M	c #810000",
"N	c #DF0000",
"O	c #CE0000",
"P	c #3A0000",
"Q	c #8B0000",
"R	c #2B0000",
"S	c #560000",
"T	c #DB0000",
"U	c #6A0000",
"                                             ...                ",
"                                            .+@#$               ",
"                                            %&**=.              ",
"                                            -;**>.              ",
"                                            .,')!               ",
"                                          .. ....               ",
"                                         ..   ...               ",
"                                        ..    . .               ",
"                                   .. ..      . ..              ",
"                                 .~{]..       .  .              ",
"                                 .^**+.       .  ..             ",
"                                 .&**/.       .   .             ",
"                                 .(&_:        .   .             ",
"                                ......        .    .            ",
"                              ..  ..          .    .            ",
"                             ..  ...          .     .           ",
"                            ..   . .          .     .           ",
"                       .<[..    .. .          .     ..          ",
"                      .}*|1.    .  .          .      .          ",
"                      .2**3.   ..  .          .      ..         ",
"                      .}*|1.   .   .          .       .         ",
"                     ...<[.    .   .          .       .         ",
"                    ......    .    .          .        .        ",
"                   .... .     .    .          .        .        ",
"                 ..  .  .    ..    .          .        ..       ",
"            ......  ..  .    .     .          .         .       ",
"           .4567.  ..   .   ..     .          .         ..      ",
"           .^**8.  .    .   .      .          .          .      ",
"           .9**/. ..    .  ..      .          .          .      ",
"           .0)ab ..     .  .       .          .           .     ",
"         ..  ..  .      .  .       .          .           .     ",
"        ..   .  ..      . .        .          .           ..    ",
"       ..    .  .       ...        .          .            .    ",
" ... ..     ....       ....       ...        ...           .... ",
".cdef.     .gh}i      .j9kl      .mnop      .,qr!          setc.",
".n**#.......u**v.......w**x.......y**z......-;**]..........#**n.",
".A**B.......C**D.......E**r.......F**G......%&**=..........B**A.",
".HAhI      .JKdL      .MNOP      .QueR      .+@3%          ShTU.",
" ....       ....       ...        ...        ...           .... "};
