/* XPM */
static char * ceiling_xpm[] = {
"64 64 5 1",
" 	c None",
".	c #010100",
"+	c #E1B313",
"@	c #DFAD00",
"#	c #F2F466",
"                  .+++.++++++++++.@@@.@@@@@@@@@.+++.++++++++++++",
"                 .+++.++++++++++.@@@.@@@@@@@@@.+++.+++++++++++++",
"                .+++.++++++++++.@@@.@@@@@@@@@.+++.+++++++++++++.",
"               .+++.++++++++++.@@@.@@@@@@@@@.+++.+++++++++++++.+",
"              .+++.++++++++++.@@@.@@@@@@@@@.+++.+++++++++++++.++",
"             .+++.++++++++++.@@@.@@@@@@@@@.+++.+++++++++++++.+++",
"            .+++.++++++++++.@@@.@@@@@@@@@.+++.+++++++++++++.+++.",
"           .+++.++++++++++.@@@.@@@@@@@@@.+++.+++++++++++++.+++.+",
"          .+++.++++++++++.@@@.@@@@@@@@@.+++.+++++++++++++.+++.++",
"         .+++.++++++++++.@@@.@@@@@@@@@.+++.+++++++++++++.+++.+++",
"        .+++.++++++++++.@@@.@@@@@@@@@.+++.+++++++++++++.+++.++++",
"       .+++.++++++++++.@@@.@@@@@@@@@.+++.+++++++++++++.+++.+++++",
"      .+++.++++++++++.@@@.@@@@@@@@@.+++.+++++++++++++.+++.++++++",
"     .+++.++++++++++.@@@.@@@@@@@@@.+++.+++++++++++++.+++.+++++++",
"    .+++.++++++++++.@@@.@@@@@@@@@.+++.+++++++++++++.+++.++++++++",
"   .+++.++++++++++.@@@.@@@@@@@@@.+++.+++++++++++++.+++.+++++++++",
"  .....++++++++++.....@@@@@@@@@.....+++++++++++++.....++++++++++",
"  .+++.++++++++++.@@@.@@@@@@@@@.+++.+++++++++++++.+++.++++++++++",
"  .+++.++++++++++.@@@.@@@@@@@@@.+++.+++++++++++++.+++.++++++++++",
"  .+++.++++++++++.@@@.@@@@@@@@@.+++.+++++++++++++.+++.++++++++++",
"  .+++.++++++++++.@@@.@@@@@@@@@.+++.+++++++++++++.+++.++++++++++",
"  .+++.++++++++++.@@@.@@@@@@@@@.+++.+++++++++++++.+++.++++++++++",
"  .+++.++++++++++.@@@.@@@@@@@@@.+++.+++++++++++++.+++.++++++++++",
"  .+++.++++++++++.@@@.@@@@@@@@@.+++.+++++++++++++.+++.++++++++++",
"  .+++.++++++++++.@@@.@@@@@@@@@.+++.+++++++++++++.+++.++++++++++",
"  .+++.++++++++++.@@@.@@@@@@@@@.+++.+++++++++++++.+++.++++++++++",
"  .+++.++++++++++.@@@.@@@@@@@@@.+++.+++++++++++++.+++.++++++++++",
"  .+++.++++++++++.@@@.@@@@@@@@@.+++.+++++++++++++.+++.++++++++++",
"  .+++.++++++++++.@@@.@@@@@@@@@.+++.+++++++++++++.+++.++++++++++",
"  .+++.++++++++++.@@@.@@@@@@@@@.+++.+++++++++++++.+++.++++++++++",
"  .+++.++++++++++.@@@.@@@@@@@@@.+++.+++++++++++++.+++.++++++++++",
"  .+++.++++++++++.@@@.@@@@@@@@@.+++.++++++++++++..+++.++++++++++",
"  .+++.++++++++++.@@@.@@@@@@@@@.+++.+++++++++++.#.+++.++++++++++",
"  .+++.++++++++++.@@@.@@@@@@@@@.+++.++++++++++.##.+++.++++++++++",
"  .+++.+++++++++..@@@.@@@@@@@@@.+++.+++++++++.###.+++.+++++++++.",
"  .+++.++++++++.#.@@@.@@@@@@@@..+++.++++++++.####.+++.++++++++.#",
"  .+++.+++++++.##.@@@.@@@@@@@.#.+++.+++++++.#####.+++.+++++++.##",
"  .+++.++++++.###.@@@.@@@@@@.##.+++.++++++.######.+++.++++++.###",
"  .+++.+++++.####.@@@.@@@@@.###.+++.+++++.#######.+++.+++++.####",
"  .+++.++++.#####.@@@.@@@@.####.+++.++++.########.+++.++++.#####",
"  .+++.+++.######.@@@.@@@.#####.+++.+++.#########.+++.+++.######",
"  .+++.++.#######.@@@.@@.######.+++.++.##########.+++.++.#######",
"  .+++.+.########.@@@.@.#######.+++.+.###########.+++.+.########",
"  .+++..#########.@@@..########.+++..############.+++..#########",
"  .....##########.....#########.....#############.....##########",
"  .#############################################################",
"  ..............................................................",
"  .#############################################################",
"  .#############################################################",
"  .#############################################################",
"  .#############################################################",
"  ..............................................................",
"                                                                ",
"                                                                ",
"                                                                ",
"                                                                ",
"                                                                ",
"                                                                ",
"                                                                ",
"                                                                ",
"                                                                ",
"                                                                ",
"                                                                ",
"                                                                "};
