/* XPM */
static char * floor_xpm[] = {
"64 64 4 1",
" 	c None",
".	c #010100",
"+	c #F2F466",
"@	c #E1B313",
"                           .++++++++++++++++++++++++++++++++++++",
"                          .+++++++++++++++++++++++++++++++++++++",
"                         .++++++++++++++++++++++++++++++++++++++",
"                        .+++++++++++++++++++++++++++++++++++++++",
"                       .++++++++++++++++++++++++++++++++++++++++",
"                      .+++++++++++++++++++++++++++++++++++++++++",
"                     .++++++++++++++++++++++++++++++++++++++++++",
"                    .+++++++++++++++++++++++++++++++++++++++++++",
"                   .++++++++++++++++++++++++++++++++++++++++++++",
"                  .+++++++++++++++++++++++++++++++++++++++++++++",
"                 .++++++++++++++++++++++++++++++++++++++++++++++",
"                .+++++++++++++++++++++++++++++++++++++++++++++++",
"               .++++++++++++++++++++++++++++++++++++++++++++++++",
"              .+++++++++++++++++++++++++++++++++++++++++++++++++",
"             .++++++++++++++++++++++++++++++++++++++++++++++++++",
"            .+++++++++++++++++++++++++++++++++++++++++++++++++++",
"           .+++++++++++++++++++++++++++++++++++++++++++++++++++.",
"          .+++++++++++++++++++++++++++++++++++++++++++++++++++.+",
"         .+++++++++++++++++++++++++++++++++++++++++++++++++++.++",
"        .+++++++++++++++++++++++++++++++++++++++++++++++++++.++.",
"       .+++++++++++++++++++++++++++++++++++++++++++++++++++.++.@",
"      .+++++++++++++++++++++++++++++++++++++++++++++++++++.++.@@",
"     .+++++++++++++++++++++++++++++++++++++++++++++++++++.++.@@@",
"    .+++++++++++++++++++++++++++++++++++++++++++++++++++.++.@@@@",
"   .+++++++++++++++++++++++++++++++++++++++++++++++++++.++.@@@@@",
"  .....................................................++.@@@@@@",
"  .+++++++++++++++++++++++++++++++++++++++++++++++++++.+.@@@@@@@",
"  .+++++++++++++++++++++++++++++++++++++++++++++++++++..@@@@@@@@",
"  .....................................................@@@@@@@@@",
"       .          .@@@.@@@@@@@@@.@@@.@@@@@@@@@@@@@.@@@.@@@@@@@@@",
"  .....          .....@@@@@@@@@.....@@@@@@@@@@@@@.....@@@@@@@@@@",
"  .   .          .@@@.@@@@@@@@@.@@@.@@@@@@@@@@@@@.@@@.@@@@@@@@@@",
"  .   .          .@@@.@@@@@@@@@.@@@.@@@@@@@@@@@@@.@@@.@@@@@@@@@@",
"  .   .          .@@@.@@@@@@@@@.@@@.@@@@@@@@@@@@@.@@@.@@@@@@@@@@",
"  .   .          .@@@.@@@@@@@@@.@@@.@@@@@@@@@@@@@.@@@.@@@@@@@@@@",
"  .   .          .@@@.@@@@@@@@@.@@@.@@@@@@@@@@@@@.@@@.@@@@@@@@@@",
"  .   .          .@@@.@@@@@@@@@.@@@.@@@@@@@@@@@@@.@@@.@@@@@@@@@@",
"  .   .          .@@@.@@@@@@@@@.@@@.@@@@@@@@@@@@@.@@@.@@@@@@@@@@",
"  .   .          .@@@.@@@@@@@@@.@@@.@@@@@@@@@@@@@.@@@.@@@@@@@@@@",
"  .   .          .@@@.@@@@@@@@@.@@@.@@@@@@@@@@@@@.@@@.@@@@@@@@@@",
"  .   .          .@@@.@@@@@@@@@.@@@.@@@@@@@@@@@@@.@@@.@@@@@@@@@@",
"  .   .          .@@@.@@@@@@@@@.@@@.@@@@@@@@@@@@@.@@@.@@@@@@@@@@",
"  .   .          .@@@.@@@@@@@@@.@@@.@@@@@@@@@@@@@.@@@.@@@@@@@@@@",
"  .   .          .@@@.@@@@@@@@@.@@@.@@@@@@@@@@@@@.@@@.@@@@@@@@@@",
"  .   .          .@@@.@@@@@@@@@.@@@.@@@@@@@@@@@@@.@@@.@@@@@@@@@@",
"  .   .          .@@@.@@@@@@@@@.@@@.@@@@@@@@@@@@..@@@.@@@@@@@@@@",
"  .   .          .@@@.@@@@@@@@@.@@@.@@@@@@@@@@@. .@@@.@@@@@@@@@@",
"  .   .          .@@@.@@@@@@@@@.@@@.@@@@@@@@@@.  .@@@.@@@@@@@@@@",
"  .   .         ..@@@.@@@@@@@@@.@@@.@@@@@@@@@.   .@@@.@@@@@@@@@.",
"  .   .        . .@@@.@@@@@@@@..@@@.@@@@@@@@.    .@@@.@@@@@@@@. ",
"  .   .       .  .@@@.@@@@@@@. .@@@.@@@@@@@.     .@@@.@@@@@@@.  ",
"  .   .      .   .@@@.@@@@@@.  .@@@.@@@@@@.      .@@@.@@@@@@.   ",
"  .   .     .    .@@@.@@@@@.   .@@@.@@@@@.       .@@@.@@@@@.    ",
"  .   .    .     .@@@.@@@@.    .@@@.@@@@.        .@@@.@@@@.     ",
"  .   .   .      .@@@.@@@.     .@@@.@@@.         .@@@.@@@.      ",
"  .   .  .       .@@@.@@.      .@@@.@@.          .@@@.@@.       ",
"  .   . .        .@@@.@.       .@@@.@.           .@@@.@.        ",
"  .   ..         .@@@..        .@@@..            .@@@..         ",
"  .....          .....         .....             .....          ",
"                                                                ",
"                                                                ",
"                                                                ",
"                                                                ",
"                                                                "};
