/* XPM */
static char * gable_xpm[] = {
"32 32 3 1",
" 	c None",
".	c #010100",
"+	c #E1B313",
"                                ",
"                                ",
"               .                ",
"              ...               ",
"             .+++.              ",
"            .++.++.             ",
"           .+++.+++.            ",
"          .++++.++++.           ",
"         .+++++.+++++.          ",
"        .++++++.++++++.         ",
"       .++++++. .++++++.        ",
"      .++++++.   .++++++.       ",
"     .++++++.     .++++++.      ",
"    .++++++.       .++++++.     ",
"   .++++++.         .++++++.    ",
"  .++++++.           .++++++.   ",
"  .+++++.             .+++++.   ",
"  .++++.               .++++.   ",
"  .+++.                 .+++.   ",
"  ....                   ....   ",
"                                ",
"                                ",
"                                ",
"                                ",
"                                ",
"                                ",
"                                ",
"                                ",
"                                ",
"                                ",
"                                ",
"                                "};
