/* XPM */
static char * invertedtruss_xpm[] = {
"64 45 77 1",
" 	c None",
".	c #000000",
"+	c #980000",
"@	c #C60000",
"#	c #950000",
"$	c #970000",
"%	c #FF0000",
"&	c #910000",
"*	c #C40000",
"=	c #C50000",
"-	c #8E0000",
";	c #890000",
">	c #880000",
",	c #C20000",
"'	c #850000",
")	c #220000",
"!	c #020000",
"~	c #0E0000",
"{	c #CF0000",
"]	c #F40000",
"^	c #800000",
"/	c #8A0000",
"(	c #DF0000",
"_	c #DE0000",
":	c #030000",
"<	c #CA0000",
"[	c #F10000",
"}	c #7B0000",
"|	c #100000",
"1	c #070000",
"2	c #A20000",
"3	c #770000",
"4	c #4A0000",
"5	c #B90000",
"6	c #490000",
"7	c #B70000",
"8	c #FB0000",
"9	c #610000",
"0	c #E40000",
"a	c #A90000",
"b	c #060000",
"c	c #A10000",
"d	c #760000",
"e	c #B80000",
"f	c #CE0000",
"g	c #0D0000",
"h	c #210000",
"i	c #2A0000",
"j	c #AC0000",
"k	c #570000",
"l	c #5E0000",
"m	c #BC0000",
"n	c #A80000",
"o	c #1D0000",
"p	c #860000",
"q	c #D10000",
"r	c #F00000",
"s	c #3D0000",
"t	c #F30000",
"u	c #C80000",
"v	c #F90000",
"w	c #780000",
"x	c #7E0000",
"y	c #D50000",
"z	c #340000",
"A	c #460000",
"B	c #F60000",
"C	c #CD0000",
"D	c #920000",
"E	c #960000",
"F	c #390000",
"G	c #B50000",
"H	c #C10000",
"I	c #620000",
"J	c #6D0000",
"K	c #B30000",
"L	c #310000",
"  ...                                                           ",
" .+@#.                                                          ",
".$%%%&.                                                         ",
".*%%%=.                                                         ",
".-%%%;.                                                         ",
" .>,'...                                                        ",
"  .... ..                                                       ",
"    ..  ...                                                     ",
"     .    ..                                                    ",
"     ..    ...                                                  ",
"      .      ....)!.                                            ",
"      ..      .~{%]^.                                           ",
"      ..      ./%%%(.                                           ",
"       .      .>%%%_.                                           ",
"       ..      :<%[}.                                           ",
"        .      ..|.....                                         ",
"        ..     .      ..                                        ",
"         .    ..       ...                                      ",
"         .   ..          ..                                     ",
"         .....            ... ....                              ",
"        .12,3.              ..4556.                             ",
"        .7%%89.              .0%%0.                             ",
"        .(%%%a...............)%%%%).                            ",
"        .7%%89.              .0%%0.                             ",
"        .bc,d.               .65e6..                            ",
"          ...                ..... ...                          ",
"            ..              ..   .   ..                         ",
"             .              .    ..   ...                       ",
"             ..            ..     .     ..                      ",
"             ..           ..      ..     .....|..               ",
"              .           .        .       .}[%<:               ",
"              ..         ..        .       ._%%%>.              ",
"               .        ..         ..      .(%%%/.              ",
"               ..       .           .      .^]%fg.              ",
"               ..      ..           ..      .!h....             ",
"                .     ..             .     ..     ...           ",
"                ..    .              ..   ..        ..          ",
"                 .   ..              ..   .          ...        ",
"                 .....                .....            ..  ...  ",
"                .ij5k.               .lmno.             ...p,>. ",
"                .q%%ri.             .st%%u.              .;%%%-.",
"                .v%%%w...............x%%%r................=%%%*.",
"                .y%%tz.             .AB%%C.              .D%%%E.",
"                .FGHI.               .J,KL.               .#=$. ",
"                 ....                 ....                 ...  "};
