/* XPM */
static char * monoatruss_xpm[] = {
"64 39 56 1",
" 	c None",
".	c #000000",
"+	c #160000",
"@	c #9C0000",
"#	c #AF0000",
"$	c #540000",
"%	c #CF0000",
"&	c #FF0000",
"*	c #F60000",
"=	c #370000",
"-	c #AE0000",
";	c #1A0000",
">	c #990000",
",	c #920000",
"'	c #F50000",
")	c #FE0000",
"!	c #CB0000",
"~	c #0F0000",
"{	c #200000",
"]	c #730000",
"^	c #DD0000",
"/	c #E50000",
"(	c #A30000",
"_	c #F10000",
":	c #7D0000",
"<	c #500000",
"[	c #A90000",
"}	c #E70000",
"|	c #FB0000",
"1	c #670000",
"2	c #510000",
"3	c #C30000",
"4	c #7F0000",
"5	c #110000",
"6	c #1F0000",
"7	c #FD0000",
"8	c #C60000",
"9	c #020000",
"0	c #930000",
"a	c #100000",
"b	c #9A0000",
"c	c #190000",
"d	c #2C0000",
"e	c #F80000",
"f	c #910000",
"g	c #470000",
"h	c #A70000",
"i	c #550000",
"j	c #CE0000",
"k	c #D50000",
"l	c #F30000",
"m	c #4A0000",
"n	c #150000",
"o	c #1E0000",
"p	c #9E0000",
"q	c #4E0000",
"                                                          ....  ",
"                                                         .+@#$. ",
"                                                         .%&&*$.",
"                                                        .=&&&&-.",
"                                                        .;*&&&>.",
"                                                        ..,')!~.",
"                                                      .....~{.. ",
"                                                    ...    ..   ",
"                                                  ...      ..   ",
"                                                ....       ..   ",
"                                               ...         ..   ",
"                                             ...           ..   ",
"                                           ...             ..   ",
"                                         ...               ..   ",
"                                       ....                ..   ",
"                                      ...                  ..   ",
"                              ..... ...                    ..   ",
"                             .]^/(...                      ..   ",
"                            .+_&&&:.                       ..   ",
"                            .<&&&&[.                       ..   ",
"                            ..}&&|1.                       ..   ",
"                           ...23%4...                      ..   ",
"                         ...  ....  ...                    ..   ",
"                       ...     ..     ...                  ..   ",
"                     ....      ..       ...                ..   ",
"                    ...        ..        ....              ..   ",
"                  ...          ..          ...             ..   ",
"                ...            ..            ...           ..   ",
"              ...              ..              ...         ..   ",
"            ....               ..                ...       ..   ",
"           ...                 ..                 ...      ..   ",
"   ..    ...                   ..                   ...    ..   ",
" ..{~.....                    .56..                   .....~{.. ",
".5!)',..                     .>*789.                    ..0')!a.",
".b&&&*c......................de&&&f......................;*&&&>.",
".-&&&&=......................g&&&&h......................=&&&&-.",
".i*&&j.                      .k&&lm.                     .%&&*$.",
" .$#@n.                      .op-q.                      .+@#$. ",
"  ....                        ....                        ....  "};
