/* XPM */
static char * monobtruss_xpm[] = {
"64 64 63 1",
" 	c None",
".	c #000000",
"+	c #A10000",
"@	c #D10000",
"#	c #7E0000",
"$	c #640000",
"%	c #FF0000",
"&	c #F20000",
"*	c #A00000",
"=	c #D20000",
"-	c #7D0000",
";	c #720000",
">	c #B00000",
",	c #630000",
"'	c #3D0000",
")	c #F80000",
"!	c #F00000",
"~	c #050000",
"{	c #590000",
"]	c #FD0000",
"^	c #230000",
"/	c #B90000",
"(	c #EB0000",
"_	c #A80000",
":	c #1D0000",
"<	c #770000",
"[	c #330000",
"}	c #DB0000",
"|	c #EC0000",
"1	c #270000",
"2	c #130000",
"3	c #730000",
"4	c #CB0000",
"5	c #E10000",
"6	c #0D0000",
"7	c #490000",
"8	c #090000",
"9	c #670000",
"0	c #DD0000",
"a	c #CF0000",
"b	c #080000",
"c	c #BF0000",
"d	c #E20000",
"e	c #870000",
"f	c #B50000",
"g	c #E40000",
"h	c #930000",
"i	c #D70000",
"j	c #860000",
"k	c #6D0000",
"l	c #F60000",
"m	c #CA0000",
"n	c #9B0000",
"o	c #740000",
"p	c #5C0000",
"q	c #BB0000",
"r	c #A90000",
"s	c #940000",
"t	c #C10000",
"u	c #5D0000",
"v	c #890000",
"w	c #C40000",
"x	c #690000",
"                                                                ",
"                                                                ",
"                                                                ",
"                                                                ",
"                                                                ",
"                                                                ",
"                                                                ",
"                                                                ",
"                                                                ",
"                                                                ",
"                                                         ...    ",
"                                                        .+@#.   ",
"                                                        $%%&.   ",
"                                                        $%%&.   ",
"                                                       ..*=-.   ",
"                                                      .. ...    ",
"                                                    ..    .     ",
"                                                   ..     .     ",
"                                                  ..      .     ",
"                                                ..        .     ",
"                                               ..         .     ",
"                                          .  ..           .     ",
"                                        .;>,..            .     ",
"                                        ')%!~             .     ",
"                                        {%%]^             .     ",
"                                        ./(_.             .     ",
"                                      .......             .     ",
"                                     .. ..  .             .     ",
"                                   ..   .   ..            .     ",
"                                  ..    .    .            .     ",
"                                ..     .      .           .     ",
"                               ..      .      ..          .     ",
"                              ..      .        .          .     ",
"                            ..        .         .         .     ",
"                           ..        ..         .         .     ",
"                      :<[..          .           .        .     ",
"                     .}%|1           .           ..       .     ",
"                     2%%%3          .             .       .     ",
"                     .4%56          .              .      .     ",
"                    ...78.         .               ..     .     ",
"                  ..     .         .                .     .     ",
"                 ..      ..       ..                 .    .     ",
"               ..         .       .                  .    .     ",
"              ..           .     ..                   .   .     ",
"             ..            ..    .                    ..  .     ",
"           ..               .    .                     .  .     ",
"          ..                 .  .                       . .     ",
"    ... ..                   ....                       ....    ",
"    90a[.                    bcde.                      .fgh.   ",
"   .i%%_.....................j%%(.......................k%%l.   ",
"   .m%%n.                   .o%%5.                     .p]%|.   ",
"    'qr.                     .stu.                      .vwx.   ",
"     ..                       ..                         ..     ",
"                                                                ",
"                                                                ",
"                                                                ",
"                                                                ",
"                                                                ",
"                                                                ",
"                                                                ",
"                                                                ",
"                                                                ",
"                                                                ",
"                                                                "};
