/* XPM */
static char * OpenPlanSketch_xpm[] = {
"64 37 82 1",
" 	c None",
".	c #000000",
"+	c #580000",
"@	c #CB0000",
"#	c #DF0000",
"$	c #FF0000",
"%	c #DE0000",
"&	c #F20000",
"*	c #A70000",
"=	c #FE0000",
"-	c #A60000",
";	c #4C0000",
">	c #A10000",
",	c #D20000",
"'	c #A80000",
")	c #5B0000",
"!	c #CA0000",
"~	c #5A0000",
"{	c #7D0000",
"]	c #8C0000",
"^	c #9B0000",
"/	c #F10000",
"(	c #3B0000",
"_	c #E70000",
":	c #EB0000",
"<	c #460000",
"[	c #A50000",
"}	c #FD0000",
"|	c #470000",
"1	c #E60000",
"2	c #0E0000",
"3	c #5E0000",
"4	c #180000",
"5	c #080000",
"6	c #4B0000",
"7	c #E00000",
"8	c #290000",
"9	c #B10000",
"0	c #970000",
"a	c #B00000",
"b	c #990000",
"c	c #770000",
"d	c #980000",
"e	c #D80000",
"f	c #A00000",
"g	c #760000",
"h	c #BA0000",
"i	c #BB0000",
"j	c #F30000",
"k	c #F40000",
"l	c #D50000",
"m	c #D40000",
"n	c #B30000",
"o	c #3A0000",
"p	c #340000",
"q	c #5F0000",
"r	c #170000",
"s	c #670000",
"t	c #7F0000",
"u	c #F90000",
"v	c #500000",
"w	c #EF0000",
"x	c #E40000",
"y	c #2D0000",
"z	c #2E0000",
"A	c #E50000",
"B	c #EE0000",
"C	c #B20000",
"D	c #590000",
"E	c #BF0000",
"F	c #F70000",
"G	c #280000",
"H	c #950000",
"I	c #720000",
"J	c #730000",
"K	c #BE0000",
"L	c #D30000",
"M	c #790000",
"N	c #AA0000",
"O	c #D60000",
"P	c #A90000",
"Q	c #2C0000",
"                              ....                              ",
"                             .+@@+.                             ",
"                             .#$$%.                             ",
"                             .&$$&.                             ",
"                             .*==-.                             ",
"                             ..;;..                             ",
"                            .. .. ..                            ",
"                           ..  ..  ..                           ",
"                          ..   ..   ..                          ",
"                      .....   ....   .....                      ",
"                     .>,'.   .)!!~.   .',>.                     ",
"                    .{$$$].  .#$$#.  .]$$${.                    ",
"                    .^$$$*....&$$/....*$$$^.                    ",
"                     (_$:<   .[}}[.   |:$1(                     ",
"                    ..234.    .||.    .432..                    ",
"                    .                      .                    ",
"                   .                        .                   ",
"                  .                          .                  ",
"             .5)...                           ..)5.             ",
"             6:$78                            87$:6             ",
"            .9$$$0.                          .0$$$a.            ",
"            .b$$$c.                          .c$$$d.            ",
"             .9ef.                            .fe9.             ",
"            .....                              .....            ",
"        .. ..  .                                .  .. ..        ",
"       .cg..   .                                .   ..cc.       ",
"      .h$$h.   .                                .   .i$$h.      ",
"      .j$$k.   .                                .   .k$$j.      ",
"      .l$$l.   .                                .   .l$$m.      ",
"      .(nno.   .                                .   .onno.      ",
"     ..... ..  .                                .  .. .....     ",
" .pq..      ..rs5.                            .5sr..      ..qp. ",
".tu$!.      .vw$xy                            zA$Bv.      .!$ut.",
".l$$$+.......C$$$b............................b$$$9.......D$$$l.",
".E$$FG.     .H$$$I.                          .J$$$H.     .GF$$K.",
".yKLM.       .NOb.                            .bOP.       .MLKQ.",
" ....         ...                              ...         .... "};
