/* XPM */
static char * plate_xpm[] = {
"64 64 3 1",
" 	c None",
".	c #010100",
"+	c #E1B313",
"                                                                ",
"                                                                ",
"                                                                ",
"                                                                ",
"                                                                ",
"                                                                ",
"                                                                ",
"                                                                ",
"                                                                ",
"                                                                ",
"                                                                ",
"                                                                ",
"                                                                ",
"                                                                ",
"                                                                ",
"                                                                ",
"                                                                ",
"                                                                ",
"                                                                ",
"                                                                ",
"        ......................................................  ",
"       .++++++++++++++++++++++++++++++++++++++++++++++++++++..  ",
"      .++++++++++++++++++++++++++++++++++++++++++++++++++++.+.  ",
"     .++++++++++++++++++++++++++++++++++++++++++++++++++++.++.  ",
"    .+++++++++++++++++++++++++++++++++++++++++++++++++++++.++.  ",
"   .+++++++++++++++++++++++++++++++++++++++++++++++++++++.+++.  ",
"  .+++++++++++++++++++++++++++++++++++++++++++++++++++++.++++.  ",
" .......................................................+++++.  ",
" .+++++++++++++++++++++++++++++++++++++++++++++++++++++.++++.   ",
" .+++++++++++++++++++++++++++++++++++++++++++++++++++++.+++.    ",
" .+++++++++++++++++++++++++++++++++++++++++++++++++++++.++.     ",
" .+++++++++++++++++++++++++++++++++++++++++++++++++++++.++.     ",
" .+++++++++++++++++++++++++++++++++++++++++++++++++++++.+.      ",
" .+++++++++++++++++++++++++++++++++++++++++++++++++++++..       ",
" .......................................................        ",
"                                                                ",
"                                                                ",
"                                                                ",
"                                                                ",
"                                                                ",
"                                                                ",
"                                                                ",
"                                                                ",
"                                                                ",
"                                                                ",
"                                                                ",
"                                                                ",
"                                                                ",
"                                                                ",
"                                                                ",
"                                                                ",
"                                                                ",
"                                                                ",
"                                                                ",
"                                                                ",
"                                                                ",
"                                                                ",
"                                                                ",
"                                                                ",
"                                                                ",
"                                                                ",
"                                                                ",
"                                                                ",
"                                                                "};
