/* XPM */
static char * rafter2_xpm[] = {
"64 64 3 1",
" 	c None",
".	c #040A00",
"+	c #E1B313",
"                                                        .       ",
"                                                       ..       ",
"                                                      .+.       ",
"                                                     .++.       ",
"                                                    .+++.       ",
"                                                   .++++.       ",
"                                                  .+++++.       ",
"                                                 .++++++.       ",
"                                                .+++++++.       ",
"                                               .++++++++.       ",
"                                              .+++++++++.       ",
"                                             .++++++++++.       ",
"                                            .+++++++++++.       ",
"                                           .++++++++++++.       ",
"                                          .++++++++++++.        ",
"                                         .++++++++++++.         ",
"                                        .++++++++++++.          ",
"                                       .++++++++++++.           ",
"                                      .++++++++++++.            ",
"                                     .++++++++++++.             ",
"                                    .++++++++++++.              ",
"                                   .++++++++++++.               ",
"                                  .++++++++++++.                ",
"                                 .++++++++++++.                 ",
"                                .++++++++++++.                  ",
"                               .++++++++++++.                   ",
"                              .++++++++++++.                    ",
"                             .++++++++++++.                     ",
"                            .++++++++++++.                      ",
"                           .++++++++++++.                       ",
"                          .++++++++++++.                        ",
"                         .++++++++++++.                         ",
"                        .++++++++++++.                          ",
"                       .++++++++++++.                           ",
"                      .++++++++++++.                            ",
"                     .++++++++++++.                             ",
"                    .++++++++++++.                              ",
"                   .++++++++++++.                               ",
"                  .++++++++++++.                                ",
"                 .++++++++++++.                                 ",
"                .++++++++++++.                                  ",
"               .++++++++++++.                                   ",
"              .++++++++++++.                                    ",
"             .++++++++++++.                                     ",
"            .++++++++++++.                                      ",
"           .++++++++++++.                                       ",
"          .++++++++++++.                                        ",
"         .++++++++++++.                                         ",
"        .++++++++++++.                                          ",
"       .+++++++......                                           ",
"       .+++++++.                                                ",
"       .+++++++.                                                ",
"       .+++++++.                                                ",
"       .+++++++.                                                ",
"       .+++++++.                                                ",
"       .++++++.                                                 ",
"       .+++++.                                                  ",
"       .++++.                                                   ",
"       .+++.                                                    ",
"       .++.                                                     ",
"       .+.                                                      ",
"       ..                                                       ",
"       .                                                        ",
"                                                                "};
