/* XPM */
static char * ridgebeam_xpm[] = {
"64 64 5 1",
" 	c None",
".	c #000000",
"+	c #E1B313",
"@	c #040A00",
"#	c #F2F466",
"                                              ..+++..+++++++++++",
"                                            ..+++..+++++++++++++",
"                                          ..+++..+++++++++++++++",
"                                        ..+++..+++++++++++++++++",
"                                      ..+++..+++++++++++++++++++",
"                                   ...+++..+++++++++++++++++++++",
"                                 ..++++..+++++++++++++++++++++++",
"                               ..++++..+++++++++++++++++++++++++",
"                             ..++++..+++++++++++++++++++++++++++",
"                           ........++++.++++++++++++++++++++++++",
"                           @+++++@+++..#.+++++++++++++++++++++++",
"                         @ @+++++@+..####.++++++++++++++++++++++",
"                        @@ @+++++@+..#####.+++++++++++++++++++++",
"                       @#@ @+++++@+.#.#####.++++++++++++++++++++",
"                      @##@ @+++++@+.##.#####.+++++++++++++++++++",
"                     @###@ @+++++@+.###.#####.++++++++++++++++++",
"                    @####@ @+++++@+.####.#####.+++++++++++++++++",
"                   @#####@ @+++++@+.#####.#####.++++++++++++++++",
"                  @######@ @+++++@+.######.#####.+++++++++++++++",
"                 @#######@ @+++++@+.#######.#####.++++++++++++++",
"                @########@ @+++++@+.########.#####.+++++++++++++",
"               @#########@ @+++++@+.#########.#####.++++++++++++",
"              @##########@ @+++++@+.##########.#####.++++++++++.",
"             @###########@ @+++++@+.###########.#####.+++++++.. ",
"            @############@ @+++++@+.############.#####.++++..   ",
"           @#############@ @+++++@+.#############.#####.+..     ",
"          @##############@ @+++++@+.##############.#####.       ",
"         @###############@ @+++++@+.###############.#####.      ",
"        @################@ @+++++@+.################.#####.     ",
"       @#################@ @+++++@+.#################.#####.    ",
"      @##################@ @+++++@+.##################.#####.   ",
"     @###################@ @+++++@+.###################.#####.  ",
"    @####################@ @+++++@+.####################.#####. ",
"   @#####################@ @+++++@+.#####################.#####.",
"  @######################@ @+++++@+.######################.#####",
" @#######################@ @+++++@+.#######################.####",
"@########################@ @+++++@+.########################.###",
"#########################@ @+++++@..#########################.##",
"#########################@ @@@@@@. .##########################.#",
"#########################@         .###########################.",
"#########################@         .############################",
"########################@           .###########################",
"#######################@             .##########################",
"######################@               .#########################",
"#####################@                 .########################",
"####################@                   .#######################",
"###################@                     .######################",
"##################@                       .#####################",
"#################@                         .####################",
"################@                           .###################",
"###############@                             .##################",
"##############@                               .#################",
"#############@                                 .################",
"############@                                   .###############",
"###########@                                     .##############",
"##########@                                       .#############",
"#########@                                         .############",
"########@                                           .###########",
"#######@                                             .##########",
"######@                                               .#########",
"#####@                                                 .########",
"####@                                                   .#######",
"###@                                                     .######",
"##@                                                       .#####"};
