/* XPM */
static char * wall_xpm[] = {
"102 113 46 1",
" 	c None",
".	c #000000",
"+	c #E1B313",
"@	c #101010",
"#	c #070707",
"$	c #040404",
"%	c #060606",
"&	c #D9AE18",
"*	c #050505",
"=	c #090909",
"-	c #DDB21A",
";	c #C09913",
">	c #DFB213",
",	c #020202",
"'	c #DFB215",
")	c #0C0C0C",
"!	c #080808",
"~	c #E0B214",
"{	c #DDB013",
"]	c #111111",
"^	c #010101",
"/	c #0D0D0D",
"(	c #E0B315",
"_	c #E0B216",
":	c #0B0B0B",
"<	c #DDB015",
"[	c #030303",
"}	c #0E0E0E",
"|	c #0F0F0F",
"1	c #DFB114",
"2	c #DEB218",
"3	c #D2A713",
"4	c #DFB31B",
"5	c #DBB11C",
"6	c #D8AD1B",
"7	c #E0B316",
"8	c #E0B215",
"9	c #E1B314",
"0	c #DAAF19",
"a	c #DDB116",
"b	c #D4AB1B",
"c	c #0A0A0A",
"d	c #E0B213",
"e	c #D5AC1B",
"f	c #D8AE1A",
"g	c #DEB115",
"             ..++++++++..+++..       ..++++++++..+++..       ..++++++++..+++..       ..++++++++..+++..",
"             ..++++++++..+++..       ..++++++++..+++..       ..++++++++..+++..       ..++++++++..+++..",
"             ..++++++++..+++..       ..++++++++..+++..       ..++++++++..+++..       ..++++++++..+++..",
"             ..++++++++..+++..       ..++++++++..+++..       ..++++++++..+++..       ..++++++++..+++..",
"             ..++++++++..+++..       ..++++++++..+++..       ..++++++++..+++..       ..++++++++..+++..",
"             ..++++++++..+++..       ..++++++++..+++..       ..++++++++..+++..       ..++++++++..+++..",
"             ..++++++++..+++..       ..++++++++..+++..       ..++++++++..+++..       ..++++++++..+++..",
"             ..++++++++..+++..       ..++++++++..+++..       ..++++++++..+++..       ..++++++++..+++..",
"             ..++++++++..+++..       ..++++++++..+++..       ..++++++++..+++..       ..++++++++..+++..",
"             ..++++++++..+++..       ..++++++++..+++..       ..++++++++..+++..       ..++++++++..+++..",
"             ..++++++++..+++..       ..++++++++..+++..       ..++++++++..+++..       ..++++++++..+++..",
"             ..++++++++..+++..       ..++++++++..+++..       ..++++++++..+++..       ..++++++++..+++..",
"             ..++++++++..+++..       ..++++++++..+++..       ..++++++++..+++..       ..++++++++..+++..",
"             ..++++++++..+++..       ..++++++++..+++..       ..++++++++..+++..       ..++++++++..+++..",
"             ..++++++++..+++..       ..++++++++..+++..       ..++++++++..+++..       ..++++++++..+++..",
"             ..++++++++..+++..       ..++++++++..+++..       ..++++++++..+++..       ..++++++++..+++..",
"             ..++++++++..+++..       ..++++++++..+++..       ..++++++++..+++..       ..++++++++..+++..",
"             ..++++++++..+++..       ..++++++++..+++..       ..++++++++..+++..       ..++++++++..+++..",
"             ..++++++++..+++..       ..++++++++..+++..       ..++++++++..+++..       ..++++++++..+++..",
"             ..++++++++..+++..       ..++++++++..+++..       ..++++++++..+++..       ..++++++++..+++..",
"             ..++++++++..+++..       ..++++++++..+++..       ..++++++++..+++..       ..++++++++..+++..",
"             ..++++++++..+++..       ..++++++++..+++..       ..++++++++..+++..       ..++++++++..+++..",
"             ..++++++++..+++..       ..++++++++..+++..       ..++++++++..+++..       ..++++++++..+++..",
"             ..++++++++..+++..       ..++++++++..+++..       ..++++++++..+++..       ..++++++++..+++..",
"             ..++++++++..+++..       ..++++++++..+++..       ..++++++++..+++..       ..++++++++..+++..",
"             ..++++++++..+++..       ..++++++++..+++..       ..++++++++..+++..       ..++++++++..+++..",
"             ..++++++++..+++..       ..++++++++..+++..       ..++++++++..+++..       ..++++++++..+++..",
"             ..++++++++..+++..       ..++++++++..+++..       ..++++++++..+++..       ..++++++++..+++..",
"             ..++++++++..+++..       ..++++++++..+++..       ..++++++++..+++..       ..++++++++..+++..",
"             ..++++++++..+++..       ..++++++++..+++..       ..++++++++..+++..       ..++++++++..+++..",
"             ..++++++++..+++..       ..++++++++..+++..       ..++++++++..+++..       ..++++++++..+++..",
"             ..++++++++..+++..       ..++++++++..+++..       ..++++++++..+++..       ..++++++++..+++..",
"             ..++++++++..+++..       ..++++++++..+++..       ..++++++++..+++..       ..++++++++..+++..",
"             ..++++++++..+++..       ..++++++++..+++..       ..++++++++..+++..       ..++++++++..+++..",
"             ..++++++++..+++..       ..++++++++..+++..       ..++++++++..+++..       ..++++++++..+++..",
"             ..++++++++..+++..       ..++++++++..+++..       ..++++++++..+++..       ..++++++++..+++..",
"             ..++++++++..+++..       ..++++++++..+++..       ..++++++++..+++..       ..++++++++..+++..",
"             ..++++++++..+++..       ..++++++++..+++..       ..++++++++..+++..       ..++++++++..+++..",
"             ..++++++++..+++..       ..++++++++..+++..       ..++++++++..+++..       ..++++++++..+++..",
"             ..++++++++..+++..       ..++++++++..+++..       ..++++++++..+++..       ..++++++++..+++..",
"             ..++++++++..+++..       ..++++++++..+++..       ..++++++++..+++..       ..++++++++..+++..",
"             ..++++++++..+++..       ..++++++++..+++..       ..++++++++..+++..       ..++++++++..+++..",
"             ..++++++++..+++..       ..++++++++..+++..       ..++++++++..+++..       ..++++++++..+++..",
"             ..++++++++..+++..       ..++++++++..+++..       ..++++++++..+++..       ..++++++++..+++..",
"             ..++++++++..+++..       ..++++++++..+++..       ..++++++++..+++..       ..++++++++..+++..",
"             ..++++++++..+++..       ..++++++++..+++..       ..++++++++..+++..       ..++++++++..+++..",
"             ..++++++++..+++..       ..++++++++..+++..       ..++++++++..+++..       ..++++++++..+++..",
"             ..++++++++..+++..       ..++++++++..+++..       ..++++++++..+++..     ....@+++++++..+++..",
"             ..++++++++..+++..       ..++++++++..+++..       ..++++++++..+++..    ...#$..++++++..+++..",
"             ..++++++++..+++..       ..++++++++..+++..       ..++++++++..+++..  ...%&+++...++++..+++..",
"             ..++++++++..+++..       ..++++++++..+++..       ..++++++++..+++......++++++++..*++..++=..",
"             ..++++++++..+++..       ..++++++++..+++..       ..++++++++..+++....++++++++++-;..+..;....",
"             ..++++++++..+++..       ..++++++++..+++..       ..++++++++..+++..++++++++++++++>$.....,..",
"             ..++++++++..+++..       ..++++++++..+++..       ..++++++++..+++..+++++++++++++++')...++..",
"             ..++++++++..+++..       ..++++++++..+++..       ..++++++++..+++..+++++++++++++++...#+++..",
"             ..++++++++..+++..       ..++++++++..+++..       ..++++++++..+++..+++++++++++++!..++++++..",
"             ..++++++++..+++..       ..++++++++..+++..       ..++++++++..+++..++++++++++~{..]++++++...",
"             ..++++++++..+++..       ..++++++++..+++..       ..++++++++..+++..++++++++++..,++++++.... ",
"             ..++++++++..+++..       ..++++++++..+++..       ..++++++++..+++..++++++++^..++++++^...   ",
"             ..++++++++..+++..       ..++++++++..+++..       ..++++++++..+++..++++++/..++++++)...     ",
"             ..++++++++..+++..       ..++++++++..+++..      ...(+++++++..+++..+++_+..:++++++....      ",
"             ..++++++++..+++..       ..++++++++..+++..     ....^+++++++..+++..+++..^++++++....        ",
"             ..++++++++..+++..       ..++++++++..+++..   ....++..:+++++..+++..<[..++++++[...          ",
"             ..++++++++..+++..       ..++++++++..+++..  ...+++++}..++++..+++....++++++|...            ",
"             ..++++++++..+++..       ..++++++++..+++.....*+++++++1,..++..++*..%++++++....             ",
"             ..++++++++..+++..       ..++++++++..+++....++++++++++++..,..:...)+++++....               ",
"             ..++++++++..+++..       ..++++++++..++2..++++++++++++++~+.....#+++++%...                 ",
"             ..++++++++..+++..       ..++++++++..+++..++++++++++++++++:...++++~;...                   ",
"             ..++++++++..+++..       ..++++++++..+++..+++++++++++++++..[3+++++....                    ",
"             ..++++++++..+++..       ..++++++++..+++..+++++++++++++^..++++++....                      ",
"             ..++++++++..+++..       ..++++++++..+++..+++++++++++)..++++++!...                        ",
"             ..++++++++..+++..       ..++++++++..+++..++++++++++..:++++++...                          ",
"             ..++++++++..+++..       ..++++++++..+++..++++++++..^++++++....                           ",
"             ..++++++++..+++..       ..++++++++..+++..++++++[..+4++++,...                             ",
"             ..++++++++..+++..      ...++++++++..+++..++++|..+5++++}...                               ",
"             ..++++++++..+++..     .....+++++++..+++..+++..=6+++++....                                ",
"             ..++++++++..+++..   ....++...+++++..+++..+...++++++....                                  ",
"             ..++++++++..+++.. ....+7++++..%+++..++8....+++++>$...                                    ",
"             ..++++++++..+++.....]+++++++++..++..++^..@++++++...                                      ",
"             ..++++++++..+++...$++++++++++9+[....[...++++++....                                       ",
"             ..++++++++..+++..++++++++++++++++.....++++++....                                         ",
"             ..++++++++..+++..+++++++++++++++0*..^a++++!...                                           ",
"             ..++++++++..+++..+++++++++++++++..|+9++++...                                             ",
"             ..++++++++..+++..+++++++++++++..,++++++....                                              ",
"             ..++++++++..+++..+++++++++++,..+++++b,...                                                ",
"             ..++++++++..+++..+++++++++}..+~++++/...                                                  ",
"             ..++++++++..+++..++++++++..c++++++....                                                   ",
"             ..++++++++..+++..++++++...++++++....                                                     ",
"            ...++++++++..+++..++++$..++++9d[...                                                       ",
"           .....}++++++..+++..+++..+++++++...                                                         ",
"         ...$++)..+2+++..+++..+..*e+++++....                                                          ",
"       ....++++++^..+++..+++....++++++....                                                            ",
"      ...++++++++++..$+..++...++++++#...                                                              ",
"    ...:+++++++++++';....^..^+++++3...                                                                ",
"  ...^++++++++++++++++$....++++++....                                                                 ",
"....++++++++++++++++++,..*+++++^...                                                                   ",
"..+~++++++++++++++++/..++++++)...                                                                     ",
"%++++++++++++++++++..cd+++++....                                                                      ",
"+++++++++++++++++..^++++++....                                                                        ",
"+++++++++++++++[..++++++[...                                                                          ",
"++++++++++++++..++++++|...                                                                            ",
"++++++++++++..*>+++++....                                                                             ",
"++++++++++...++++++....                                                                               ",
"++++++++#..+++++f#...                                                                                 ",
"++++++{..]++++~;...                                                                                   ",
"+++++..$++++(+....                                                                                    ",
"+++^..++++++^...                                                                                      ",
"+c..+++++d=...                                                                                        ",
"..:g+++++....                                                                                         ",
"^++++++....                                                                                           ",
"+++++[...                                                                                             ",
"+++}...                                                                                               ",
"++....                                                                                                "};
