/* XPM */
static char * staircase_xpm[] = {
"64 64 4 1",
" 	c None",
".	c #000000",
"+	c #E1B313",
"@	c #090000",
"                       ..+++++++@+++++++.+++++++++++++++++++++++",
"                       ..++++++++@+++++++.++++++++++++++++++++++",
"                       .+.+++++++@++++++++..++++++++++++++++++++",
"                       .+.++++++++@+++++++++.+++++++++++++++++++",
"                       .++.++++++++@+++++++++.++++++++++++++++++",
"                       .++.+++++++++@++++++++...................",
"                       .+++.++++++++@++++++++.+++++++++++++++++.",
"                       .+++.+++++++++@+++++++.+++++++++++++++++.",
"                       .++++.+++++++++@++++++.+++++++++++++++++.",
"                       .++++.+++++++++@++++++.+++++++++++++++++.",
"                       .+++++.+++++++++@+++++.+++++++++++++++++.",
"            ...........@+++++.++++++++++@++++.+++++++++++++++++.",
"            .++++++++++@++++++.+++++++++@++++.+++++++++++++++++.",
"            ..++++++++++@+++++.++++++++++@+++.++++++++++++++++. ",
"            ..++++++++++@++++++.++++++++++@++.+++++++++++++++.  ",
"            ..+++++++++++@+++++.+++++++++++@+.++++++++++++++.   ",
"            .+.++++++++++@++++++.++++++++++@+.+++++++++++++.    ",
"            .+.+++++++++++@+++++............@.+++++++++++++.    ",
"            .+.+++++++++++@+++++.+++++++++++++++++++++++++.     ",
"            .++.+++++++++++@++++.++++++++++++++++++++++++.      ",
"            .++.+++++++++++@++++.+++++++++++++++++++++++.       ",
"            .++.++++++++++++@+++.++++++++++++++++++++++.        ",
"............@++.++++++++++++@+++.+++++++++++++++++++++.         ",
"++++++++++++@+++.++++++++++++@++.++++++++++++++++++++.          ",
"+++++++++++++@++.++++++++++++@++.+++++++++++++++++++.           ",
"+++++++++++++@++.+++++++++++++@+.+++++++++++++++++++.           ",
"+++++++++++++@+++.++++++++++++@+.++++++++++++++++++.            ",
"+++++++++++++@+++.+++++++++++++@.+++++++++++++++++.             ",
"++++++++++++++@++.+++++++++++++@.++++++++++++++++.              ",
"++++++++++++++@+++.+++++++++++++@+++++++++++++++.               ",
"++++++++++++++@+++..............@++++++++++++++.                ",
"++++++++++++++@+++.+++++++++++++++++++++++++++.                 ",
"+++++++++++++++@++.++++++++++++++++++++++++++.                  ",
"+++++++++++++++@++.+++++++++++++++++++++++++.                   ",
"+++++++++++++++@++.+++++++++++++++++++++++++.                   ",
"+++++++++++++++@++.++++++++++++++++++++++++.                    ",
"++++++++++++++++@+.+++++++++++++++++++++++.                     ",
"++++++++++++++++@+.++++++++++++++++++++++.                      ",
"++++++++++++++++@+.+++++++++++++++++++++.                       ",
"++++++++++++++++@+.++++++++++++++++++++.                        ",
"+++++++++++++++++@.+++++++++++++++++++.                         ",
"+++++++++++++++++@.++++++++++++++++++.                          ",
"+++++++++++++++++@.++++++++++++++++++.                          ",
"+++++++++++++++++@.+++++++++++++++++.                           ",
"++++++++++++++++++@++++++++++++++++.                            ",
"..................@+++++++++++++++.                             ",
".++++++++++++++++++++++++++++++++.                              ",
".+++++++++++++++++++++++++++++++.                               ",
".++++++++++++++++++++++++++++++.                                ",
".+++++++++++++++++++++++++++++.                                 ",
".++++++++++++++++++++++++++++.                                  ",
".++++++++++++++++++++++++++++.                                  ",
".+++++++++++++++++++++++++++.                                   ",
".++++++++++++++++++++++++++.                                    ",
".+++++++++++++++++++++++++.                                     ",
".++++++++++++++++++++++++.                                      ",
".+++++++++++++++++++++++.                                       ",
".++++++++++++++++++++++.                                        ",
".+++++++++++++++++++++.                                         ",
".+++++++++++++++++++++.                                         ",
".++++++++++++++++++++.                                          ",
".+++++++++++++++++++.                                           ",
"..+++++++++++++++++.                                            ",
"...................                                             "};
