/* XPM */
static char * storage_xpm[] = {
"64 42 61 1",
" 	c None",
".	c #000000",
"+	c #620000",
"@	c #DC0000",
"#	c #CD0000",
"$	c #FF0000",
"%	c #C20000",
"&	c #C10000",
"*	c #370000",
"=	c #B90000",
"-	c #8D0000",
";	c #AC0000",
">	c #480000",
",	c #1A0000",
"'	c #A20000",
")	c #8A0000",
"!	c #DF0000",
"~	c #BA0000",
"{	c #AB0000",
"]	c #F40000",
"^	c #CF0000",
"/	c #F50000",
"(	c #440000",
"_	c #F20000",
":	c #9F0000",
"<	c #750000",
"[	c #EB0000",
"}	c #910000",
"|	c #D70000",
"1	c #A50000",
"2	c #360000",
"3	c #FC0000",
"4	c #6F0000",
"5	c #700000",
"6	c #930000",
"7	c #DB0000",
"8	c #A80000",
"9	c #4F0000",
"0	c #C00000",
"a	c #B00000",
"b	c #190000",
"c	c #A60000",
"d	c #C40000",
"e	c #630000",
"f	c #DA0000",
"g	c #AA0000",
"h	c #970000",
"i	c #E70000",
"j	c #D90000",
"k	c #E20000",
"l	c #F10000",
"m	c #7C0000",
"n	c #E10000",
"o	c #D50000",
"p	c #420000",
"q	c #340000",
"r	c #CE0000",
"s	c #E40000",
"t	c #8B0000",
"u	c #8C0000",
"v	c #430000",
"                              ....                              ",
"                             .+@@+.                             ",
"                             .#$$#.                             ",
"                             .%$$&.                             ",
"                              *==*                              ",
"                             ......                             ",
"                            .. .. ..                            ",
"                            .  ..  .                            ",
"                           .   ..   .                           ",
"                          .    ..    .                          ",
"                         ..    ..    ..                         ",
"                        ..     ..     ..                        ",
"                        .      ..      .                        ",
"                       .       ..       .                       ",
"                      .        ..        .                      ",
"                     ..        ..        ..                     ",
"                    ..         ..         ..                    ",
"                    .          ..          .                    ",
"                ....           ..           ....                ",
"               .-;>.          ,'',          .>;-.               ",
"              .)$$!.         .~$$~.         .!$$).              ",
"              .{$$]...........^$$^.........../$${.              ",
"               (!_:.         .<[[<.         .:_!(               ",
"               ....           ....           ....               ",
"              .  .                            .  .              ",
"             ..  .                            .  ..             ",
"            ..   .                            .   ..            ",
"           ..    .                            .    ..           ",
"           .     .                            .     .           ",
"       ....      .                            .      ....       ",
"      .}|1.      .                            .      .1|}.      ",
"      23$$4      .                            .      4$$32      ",
"      *3$$5      .                            .      5$$32      ",
"      .678.      .                            .      .876.      ",
"      .... ..    .                            .    .. ....      ",
"     ..     ..   .                            .   ..     ..     ",
"  ....       .. ..                            .. ..       ....  ",
".90ab         ..cde.                        .edc..         ba09.",
".f$$g.        .h$$i.                        .i$$h.        .{$$j.",
".k$$~..........c$$l..........................l$$c..........~$$k.",
".mnop          qrst.                        .usrq          vonm.",
" ...            ...                          ...            ... "};
