/* XPM */
static char * stairstringer_xpm[] = {
"128 128 15 1",
" 	c None",
".	c #000000",
"+	c #FFAE4C",
"@	c #FFC054",
"#	c #FF9933",
"$	c #FFCC66",
"%	c #FFCC99",
"&	c #FFCC33",
"*	c #FFFF66",
"=	c #FFFF99",
"-	c #777777",
";	c #663300",
">	c #CC6633",
",	c #FF6600",
"'	c #FF9900",
"                                                                                                                                ",
"                                                                                                                                ",
"                                                                                                                                ",
"                                                                                                                                ",
"                                                                                                                                ",
"                                                                                                                                ",
"                                                                                                                                ",
"                                                                                                                                ",
"                                                                                                                                ",
"                                                                                                                                ",
"                                                                                                                                ",
"                                                                                                                                ",
"                                                                                                                                ",
"                                                                                                                                ",
"                                                                                                                                ",
"                                                                                                                                ",
"                                                                                                                                ",
"                                                                                                                                ",
"                                                                                                                                ",
"                                                                                                                                ",
"     .                  .                                                                                                       ",
"    ......................                                                                                                      ",
"    ......................                                                                                                      ",
"    .. +@@#$$+$$%&$$$$+@..                                                                                                      ",
"    .. +@@#$$+$$%&$$$$+@..                                                                                                      ",
"    .. +@@#$$+$$%&$$$$+@..                                                                                                      ",
"    .. +@@#$$+$$%&$$$$+@..                                                                                                      ",
"    .. +@@#$$+$$%&$$$+@@..                                                                                                      ",
"    .. +@@#$$+$$%&$$$+@@..                                                                                                      ",
"    .. @@@#$$+$$%&$$$+@@..                                                                                                      ",
"    .. @@@#$$+$$%&$$$+@@..                                                                                                      ",
"    .. @@@#$$+$$%&$$$+@@..                                                                                                      ",
"    .. @@@#$$+$$%&$$$+@@..                                                                                                      ",
"    ...@@@#$$+$$%&$$$+@@......................                                                                                  ",
"    .... @#$$+$$%&$$$+@@......................                                                                                  ",
"      ....#$$+$$%&$$$+@@+ $$+$$$+$$@@$@@$$+ ..                                                                                  ",
"       .... $+$$%&$$$+@@+$$$+$$$+$$@@@@@$$+ ..                                                                                  ",
"         .... $$%&$$$+@@+$$$+$$$$+$$@@@@$$+ ..                                                                                  ",
"           ... $%&$$$+@@+$$$+$$$$+$$@@$@$$+ ..                                                                                  ",
"            .... &$$$+@@+$$$+$$$$+$$@@@@$$+ ..                                                                                  ",
"              ....$$$+@@+$$$+$$$$+$$@@@$$$+ ..                                                                                  ",
"               .... $+@@+$$$+$%$$+$$@@@$$$+ ..                                                                                  ",
"                 ....+@@+$$$+$%$$+$$$@@$$$+ ..                                                                                  ",
"                  .... @+$$$+$%$$+$$$@@$$$+ ..                                                                                  ",
"                    .... $$$+$%$$+$$$@@$$$+ ..                                                                                  ",
"                      ... $$+$%$$+$$$@@$$$+ ..                 ..                                                               ",
"                       .... +$%$$+$$$@@$$$+ ......................                                                              ",
"                         ....$%$$+$$$@@$$$+$.....................                                                               ",
"                          .... $$+$$$@@$$$+$$&@@$$$+@@@+%$@$*=#..                                                               ",
"                            ....$+$$$@@$$$+$$&@@$$$+@@@+%$@$*=#..                                                               ",
"                             .... $$$@@$$$+$$&@@$$$+@@@+%$@$*=#..                                                               ",
"                               .... $@@$$$+$$&@@$$$+@@@+%$@$*=#..                                                               ",
"                                 ... @@$$$+$$&@@$$$+@@@+%$@$*=#..                                                               ",
"                                  .... $$$+$$&@@$$$+@@@+%$@$*=#..                                                               ",
"                                    ....$$+$$&@@$$$+@@@+%$@$*=#..                                                               ",
"                                     .... +$$&@@$$$+@@@+%$@$*=#..                                                               ",
"                                       ....$$&@@$$$+@@@+%$@$*=#..                                                               ",
"                                        .... &@@%$$+@@@+%$@$*=#..                                                               ",
"                                          .... @%$$+@@@+%$@$*=#......................                                           ",
"                                            ... %$$+@@@+%$@$*=#......................                                           ",
"                                             .... $+@@@+%$@$*=#-;>+$&$$+@@#$$+$$%&$..                                           ",
"                                               ....+@@@+%$@$*=#-;>+$&$$+@@#$$+$$%&$..                                           ",
"                                                .... @@+%$@$*=#-;>+$&$$+@@#$$+$$%&$..                                           ",
"                                                  ....@+%$@$*=#-;>+$&$$+@@#$$+$$%&$..                                           ",
"                                                   .... %$@$*=#-;>+$&$$+@@#$$+$$%&$..                                           ",
"                                                     .... @$*=#-;>+$&$$+@@#$$+$$%&$..                                           ",
"                                                       ... $*=#-;>+$&$$+@@#$$+$$%&$..                                           ",
"                                                        .... =#-;>+$&$$+@@#$$+$$%&$..                                           ",
"                                                          ....#-;>+$&$$+@@#$$+$$%&$..                                           ",
"                                                           .... ;>+$&$$+@@#$$+$$%&$..                                           ",
"                                                             ....>+$&$$+@@#$$+$$%&$..                  .                        ",
"                                                              .... $&$$+@@#$$+$$%&$......................                       ",
"                                                                .... $$+@@#$$+$$%&$......................                       ",
"                                                                  ... $+@@#$$+$$%&$$$$+@+$$$+$+$#$##,# ..                       ",
"                                                                   .... @@#$$+$$%&$$$$+@+$$$+$+$#$',## ..                       ",
"                                                                     ....@#$$+$$%&$$$$+@+$$+$$+$#$#+#$ ..                       ",
"                                                                      .... $$+$$%&$$$$+@+$$+$$+$#$#+#$ ..                       ",
"                                                                        ....$+$$%&$$$$+@@+$+$$+$#$#+'$ ..                       ",
"                                                                         .... $$%&$$$$+@@+$+$$+$#$#+#$ ..                       ",
"                                                                           .... %&$$$$+@@+$+$$+$#$#+'$ ..                       ",
"                                                                             ... &$$$$+@@+$+$$+$#$###$ ..                       ",
"                                                                              .... $$$+@@+$+$$+$$#$#$$ ..                       ",
"                                                                                ....$$+@@+$+$$+$$#$$$$ ..                       ",
"                                                                                 .... @@@+$+$$+$$$#$$$......................    ",
"                                                                                   ....@@+$+$$+$$$#$$$ .....................    ",
"                                                                                    .... $$+$$+$$$$###$$@@$+$&@@%$$+@@@+%$..    ",
"                                                                                      .... +$$+$$&$$$$$&@@$+$&@@%$$+@@@+%$..    ",
"                                                                                        ... $$+$$&&$$$$&@@$+$&@@%$$+@@@+%$..    ",
"                                                                                         .... +$$$&$$$$&@@$+$&@@%$$+@@@+%$..    ",
"                                                                                           ....+$$$@$$&@@$$+$&@@$$$+@@@+%$..    ",
"                                                                                            .... $$@&$&@@$+$$&@@$$$+@@@+%$..    ",
"                                                                                              ....$@@$@@$$+$$&@@$$$+@@@+%$..    ",
"                                                                                               .... @@@@$$+$$&@@$$$+@@@+%$..    ",
"                                                                                                 .... @@$$+$$&@@$$$+@@@+%$..    ",
"                                                                                                   ... @$$+$$&@@$$$+@@@+%$..    ",
"                                                                                                    ........................    ",
"                                                                                                      ......................    ",
"                                                                                                       ..                 ..    ",
"                                                                                                                                ",
"                                                                                                                                ",
"                                                                                                                                ",
"                                                                                                                                ",
"                                                                                                                                ",
"                                                                                                                                ",
"                                                                                                                                ",
"                                                                                                                                ",
"                                                                                                                                ",
"                                                                                                                                ",
"                                                                                                                                ",
"                                                                                                                                ",
"                                                                                                                                ",
"                                                                                                                                ",
"                                                                                                                                ",
"                                                                                                                                ",
"                                                                                                                                ",
"                                                                                                                                ",
"                                                                                                                                ",
"                                                                                                                                ",
"                                                                                                                                ",
"                                                                                                                                ",
"                                                                                                                                ",
"                                                                                                                                ",
"                                                                                                                                ",
"                                                                                                                                ",
"                                                                                                                                ",
"                                                                                                                                ",
"                                                                                                                                ",
"                                                                                                                                "};
