/* XPM */
static char * studspacer_xpm[] = {
"35 147 17 1",
" 	c None",
".	c #000000",
"+	c #575757",
"@	c #F2F466",
"#	c #CACACA",
"$	c #C5C5C5",
"%	c #8A8A8A",
"&	c #9E9E9E",
"*	c #101010",
"=	c #333333",
"-	c #A0A0A0",
";	c #515151",
">	c #E1B313",
",	c #9D9D9D",
"'	c #060606",
")	c #111111",
"!	c #8E8E8E",
"..+@@@@@@@#..         ..#@@@@@@@+..",
"..+@@@@@@@#..         ..#@@@@@@@+..",
"..+@@@@@@@#..         ..#@@@@@@@+..",
"..+@@@@@@@#..         ..#@@@@@@@+..",
"..+@@@@@@@#..         ..#@@@@@@@+..",
"..+@@@@@@@#..         ..#@@@@@@@+..",
"..+@@@@@@@#..         ..#@@@@@@@+..",
"..+@@@@@@@#..         ..#@@@@@@@+..",
"..+@@@@@@@#..         ..#@@@@@@@+..",
"..+@@@@@@@#..         ..#@@@@@@@+..",
"..+@@@@@@@#..         ..#@@@@@@@+..",
"..+@@@@@@@#..         ..#@@@@@@@+..",
"..+@@@@@@@#..         ..#@@@@@@@+..",
"..+@@@@@@@#..         ..#@@@@@@@+..",
"..+@@@@@@@#..         ..#@@@@@@@+..",
"..+@@@@@@@#..         ..#@@@@@@@+..",
"..+@@@@@@@#..         ..#@@@@@@@+..",
"..+@@@@@@@#..         ..#@@@@@@@+..",
"..+@@@@@@@#..         ..#@@@@@@@+..",
"..+@@@@@@@#..         ..#@@@@@@@+..",
"..+@@@@@@@#..         ..#@@@@@@@+..",
"..+@@@@@@@#..         ..#@@@@@@@+..",
"..+@@@@@@@#..         ..#@@@@@@@+..",
"..+@@@@@@@#..         ..#@@@@@@@+..",
"..+@@@@@@@#..         ..#@@@@@@@+..",
"..+@@@@@@@#..         ..#@@@@@@@+..",
"..+@@@@@@@#..         ..#@@@@@@@+..",
"..+@@@@@@@#..         ..#@@@@@@@+..",
"..+@@@@@@@#..         ..#@@@@@@@+..",
"..+@@@@@@@#..         ..#@@@@@@@+..",
"..+@@@@@@@#..         ..#@@@@@@@+..",
"..+@@@@@@@#..         ..#@@@@@@@+..",
"..+@@@@@@@#..         ..#@@@@@@@+..",
"..+@@@@@@@#..         ..#@@@@@@@+..",
"..+@@@@@@@#..         ..#@@@@@@@+..",
"..+@@@@@@@#..         ..#@@@@@@@+..",
"..+@@@@@@@#..         ..#@@@@@@@+..",
"..+@@@@@@@#..         ..#@@@@@@@+..",
"..+@@@@@@@$.............$@@@@@@@+..",
"..+@@@@@@@%.............%@@@@@@@+..",
"..+@@@@@@@&..*=======*..&@@@@@@@+..",
"..+@@@@@@@-..;>>>>>>>;..-@@@@@@@+..",
"..+@@@@@@@-..;>>>>>>>;..-@@@@@@@+..",
"..+@@@@@@@-..;>>>>>>>;..-@@@@@@@+..",
"..+@@@@@@@-..;>>>>>>>;..-@@@@@@@+..",
"..+@@@@@@@-..;>>>>>>>;..-@@@@@@@+..",
"..+@@@@@@@-..;>>>>>>>;..-@@@@@@@+..",
"..+@@@@@@@-..;>>>>>>>;..-@@@@@@@+..",
"..+@@@@@@@-..;>>>>>>>;..-@@@@@@@+..",
"..+@@@@@@@-..;>>>>>>>;..-@@@@@@@+..",
"..+@@@@@@@-..;>>>>>>>;..-@@@@@@@+..",
"..+@@@@@@@-..;>>>>>>>;..-@@@@@@@+..",
"..+@@@@@@@-..;>>>>>>>;..-@@@@@@@+..",
"..+@@@@@@@-..;>>>>>>>;..-@@@@@@@+..",
"..+@@@@@@@-..;>>>>>>>;..-@@@@@@@+..",
"..+@@@@@@@-..;>>>>>>>;..-@@@@@@@+..",
"..+@@@@@@@-..;>>>>>>>;..-@@@@@@@+..",
"..+@@@@@@@-..;>>>>>>>;..-@@@@@@@+..",
"..+@@@@@@@-..;>>>>>>>;..-@@@@@@@+..",
"..+@@@@@@@-..;>>>>>>>;..-@@@@@@@+..",
"..+@@@@@@@-..;>>>>>>>;..-@@@@@@@+..",
"..+@@@@@@@-..;>>>>>>>;..-@@@@@@@+..",
"..+@@@@@@@-..;>>>>>>>;..-@@@@@@@+..",
"..+@@@@@@@-..;>>>>>>>;..-@@@@@@@+..",
"..+@@@@@@@-..;>>>>>>>;..-@@@@@@@+..",
"..+@@@@@@@-..;>>>>>>>;..-@@@@@@@+..",
"..+@@@@@@@-..;>>>>>>>;..-@@@@@@@+..",
"..+@@@@@@@-..;>>>>>>>;..-@@@@@@@+..",
"..+@@@@@@@-..;>>>>>>>;..-@@@@@@@+..",
"..+@@@@@@@-..;>>>>>>>;..-@@@@@@@+..",
"..+@@@@@@@-..;>>>>>>>;..-@@@@@@@+..",
"..+@@@@@@@-..;>>>>>>>;..-@@@@@@@+..",
"..+@@@@@@@-..;>>>>>>>;..-@@@@@@@+..",
"..+@@@@@@@-..;>>>>>>>;..-@@@@@@@+..",
"..+@@@@@@@-..;>>>>>>>;..-@@@@@@@+..",
"..+@@@@@@@-..;>>>>>>>;..-@@@@@@@+..",
"..+@@@@@@@-..;>>>>>>>;..-@@@@@@@+..",
"..+@@@@@@@-..;>>>>>>>;..-@@@@@@@+..",
"..+@@@@@@@-..;>>>>>>>;..-@@@@@@@+..",
"..+@@@@@@@-..;>>>>>>>;..-@@@@@@@+..",
"..+@@@@@@@-..;>>>>>>>;..-@@@@@@@+..",
"..+@@@@@@@-..;>>>>>>>;..-@@@@@@@+..",
"..+@@@@@@@-..;>>>>>>>;..-@@@@@@@+..",
"..+@@@@@@@-..;>>>>>>>;..-@@@@@@@+..",
"..+@@@@@@@-..;>>>>>>>;..-@@@@@@@+..",
"..+@@@@@@@-..;>>>>>>>;..-@@@@@@@+..",
"..+@@@@@@@-..;>>>>>>>;..-@@@@@@@+..",
"..+@@@@@@@-..;>>>>>>>;..-@@@@@@@+..",
"..+@@@@@@@-..;>>>>>>>;..-@@@@@@@+..",
"..+@@@@@@@-..;>>>>>>>;..-@@@@@@@+..",
"..+@@@@@@@-..;>>>>>>>;..-@@@@@@@+..",
"..+@@@@@@@-..;>>>>>>>;..-@@@@@@@+..",
"..+@@@@@@@-..;>>>>>>>;..-@@@@@@@+..",
"..+@@@@@@@-..;>>>>>>>;..-@@@@@@@+..",
"..+@@@@@@@-..;>>>>>>>;..-@@@@@@@+..",
"..+@@@@@@@-..;>>>>>>>;..-@@@@@@@+..",
"..+@@@@@@@-..;>>>>>>>;..-@@@@@@@+..",
"..+@@@@@@@-..;>>>>>>>;..-@@@@@@@+..",
"..+@@@@@@@-..;>>>>>>>;..-@@@@@@@+..",
"..+@@@@@@@-..;>>>>>>>;..-@@@@@@@+..",
"..+@@@@@@@-..;>>>>>>>;..-@@@@@@@+..",
"..+@@@@@@@-..;>>>>>>>;..-@@@@@@@+..",
"..+@@@@@@@-..;>>>>>>>;..-@@@@@@@+..",
"..+@@@@@@@-..;>>>>>>>;..-@@@@@@@+..",
"..+@@@@@@@-..;>>>>>>>;..-@@@@@@@+..",
"..+@@@@@@@-..;>>>>>>>;..-@@@@@@@+..",
"..+@@@@@@@-..;>>>>>>>;..-@@@@@@@+..",
"..+@@@@@@@-..;>>>>>>>;..-@@@@@@@+..",
"..+@@@@@@@-..;>>>>>>>;..-@@@@@@@+..",
"..+@@@@@@@-..;>>>>>>>;..-@@@@@@@+..",
"..+@@@@@@@-..;>>>>>>>;..-@@@@@@@+..",
"..+@@@@@@@-..;>>>>>>>;..-@@@@@@@+..",
"..+@@@@@@@-..;>>>>>>>;..-@@@@@@@+..",
"..+@@@@@@@-..;>>>>>>>;..-@@@@@@@+..",
"..+@@@@@@@-..;>>>>>>>;..-@@@@@@@+..",
"..+@@@@@@@-..;>>>>>>>;..-@@@@@@@+..",
"..+@@@@@@@-..;>>>>>>>;..-@@@@@@@+..",
"..+@@@@@@@-..;>>>>>>>;..-@@@@@@@+..",
"..+@@@@@@@-..;>>>>>>>;..-@@@@@@@+..",
"..+@@@@@@@-..;>>>>>>>;..-@@@@@@@+..",
"..+@@@@@@@-..;>>>>>>>;..-@@@@@@@+..",
"..+@@@@@@@-..;>>>>>>>;..-@@@@@@@+..",
"..+@@@@@@@-..;>>>>>>>;..-@@@@@@@+..",
"..+@@@@@@@,..')))))))'..,@@@@@@@+..",
"..+@@@@@@@!.............!@@@@@@@+..",
"..+@@@@@@@#.............#@@@@@@@+..",
"..+@@@@@@@#..         ..#@@@@@@@+..",
"..+@@@@@@@#..         ..#@@@@@@@+..",
"..+@@@@@@@#..         ..#@@@@@@@+..",
"..+@@@@@@@#..         ..#@@@@@@@+..",
"..+@@@@@@@#..         ..#@@@@@@@+..",
"..+@@@@@@@#..         ..#@@@@@@@+..",
"..+@@@@@@@#..         ..#@@@@@@@+..",
"..+@@@@@@@#..         ..#@@@@@@@+..",
"..+@@@@@@@#..         ..#@@@@@@@+..",
"..+@@@@@@@#..         ..#@@@@@@@+..",
"..+@@@@@@@#..         ..#@@@@@@@+..",
"..+@@@@@@@#..         ..#@@@@@@@+..",
"..+@@@@@@@#..         ..#@@@@@@@+..",
"..+@@@@@@@#..         ..#@@@@@@@+..",
"..+@@@@@@@#..         ..#@@@@@@@+..",
"..+@@@@@@@#..         ..#@@@@@@@+..",
"..+@@@@@@@#..         ..#@@@@@@@+..",
"..+@@@@@@@#..         ..#@@@@@@@+..",
"..+@@@@@@@#..         ..#@@@@@@@+..",
"..+@@@@@@@#..         ..#@@@@@@@+..",
"..+@@@@@@@#..         ..#@@@@@@@+.."};
