/* XPM */
static char * stud_icon_xpm[] = {
"64 64 4 1",
" 	c #FFFFFF",
".	c #000000",
"+	c #E1B313",
"@	c #363636",
"                                                                ",
"                                                                ",
"                                                                ",
"                                                                ",
"                                                                ",
"                                                                ",
"                                                                ",
"                                                                ",
"                               ........                         ",
"                              .++++++..                         ",
"                            ..++++++.+.                         ",
"                           .+++++++.++.                         ",
"                          .++++++..+++.                         ",
"                        ..++++++.+++++.                         ",
"                       .......@.++++++.                         ",
"                       .++++++.+++++++.                         ",
"                       .++++++.+++++++.                         ",
"                       .++++++.+++++++.                         ",
"                       .++++++.+++++++.                         ",
"                       .++++++.+++++++.                         ",
"                       .++++++.+++++++.                         ",
"                       .++++++.+++++++.                         ",
"                       .++++++.+++++++.                         ",
"                       .++++++.+++++++.                         ",
"                       .++++++.+++++++.                         ",
"                       .++++++.+++++++.                         ",
"                       .++++++.+++++++.                         ",
"                       .++++++.+++++++.                         ",
"                       .++++++.+++++++.                         ",
"                       .++++++.+++++++.                         ",
"                       .++++++.+++++++.                         ",
"                       .++++++.+++++++.                         ",
"                       .++++++.+++++++.                         ",
"                       .++++++.+++++++.                         ",
"                       .++++++.+++++++.                         ",
"                       .++++++.+++++++.                         ",
"                       .++++++.+++++++.                         ",
"                       .++++++.+++++++.                         ",
"                       .++++++.+++++++.                         ",
"                       .++++++.+++++++.                         ",
"                       .++++++.+++++++.                         ",
"                       .++++++.+++++++.                         ",
"                       .++++++.+++++++.                         ",
"                       .++++++.+++++++.                         ",
"                       .++++++.+++++++.                         ",
"                       .++++++.+++++++.                         ",
"                       .++++++.+++++++.                         ",
"                       .++++++.+++++++.                         ",
"                       .++++++.+++++++.                         ",
"                       .++++++.+++++++.                         ",
"                       .++++++.+++++++.                         ",
"                       .++++++.+++++++.                         ",
"                       .++++++.++++++.                          ",
"                       .++++++.+++++.                           ",
"                       .++++++.++++.                            ",
"                       .++++++.+++.                             ",
"                       .++++++.++.                              ",
"                       .++++++.+.                               ",
"                       .++++++..                                ",
"                       ........                                 ",
"                                                                ",
"                                                                ",
"                                                                ",
"                                                                "};
